<?xml version="1.0" encoding="UTF-8" standalone="no"?>
<!-- Created with Inkscape (http://www.inkscape.org/) -->

<svg
   xmlns:dc="http://purl.org/dc/elements/1.1/"
   xmlns:cc="http://creativecommons.org/ns#"
   xmlns:rdf="http://www.w3.org/1999/02/22-rdf-syntax-ns#"
   xmlns:svg="http://www.w3.org/2000/svg"
   xmlns="http://www.w3.org/2000/svg"
   xmlns:sodipodi="http://sodipodi.sourceforge.net/DTD/sodipodi-0.dtd"
   xmlns:inkscape="http://www.inkscape.org/namespaces/inkscape"
   width="300"
   height="300"
   viewBox="0 0 300.00001 300.00001"
   id="svg4888"
   version="1.1"
   inkscape:version="0.91 r13725"
   sodipodi:docname="ornlLeaf.svg">
  <defs
     id="defs4890" />
  <sodipodi:namedview
     id="base"
     pagecolor="#ffffff"
     bordercolor="#666666"
     borderopacity="1.0"
     inkscape:pageopacity="0"
     inkscape:pageshadow="2"
     inkscape:zoom="1.4"
     inkscape:cx="133.85508"
     inkscape:cy="174.25175"
     inkscape:document-units="px"
     inkscape:current-layer="layer1"
     showgrid="false"
     units="px"
     inkscape:window-width="1916"
     inkscape:window-height="1041"
     inkscape:window-x="1280"
     inkscape:window-y="18"
     inkscape:window-maximized="0" />
  <metadata
     id="metadata4893">
    <rdf:RDF>
      <cc:Work
         rdf:about="">
        <dc:format>image/svg+xml</dc:format>
        <dc:type
           rdf:resource="http://purl.org/dc/dcmitype/StillImage" />
        <dc:title></dc:title>
      </cc:Work>
    </rdf:RDF>
  </metadata>
  <g
     inkscape:label="Layer 1"
     inkscape:groupmode="layer"
     id="layer1"
     transform="translate(0,-752.36216)">
    <path
       style="fill:#323232;fill-opacity:0.1"
       id="path2797"
       d="m 206.56433,1038.2926 c 3.52227,0.1689 5.04215,1.9662 5.04215,1.9662 0,0 -0.69963,-1.7973 -0.59107,3.088 0.10857,4.8853 -5.42815,2.6537 -16.52572,-2.0989 -19.83087,-8.48 -31.36269,-32.8705 -36.30833,-43.52177 0,0 -5.24722,-9.09515 -12.7622,-15.58482 -4.31841,-3.73939 -12.30383,-5.83827 -12.30383,-5.83827 0,0 -6.22428,-3.03977 -15.77784,-6.39317 -9.09518,-3.18452 -42.134559,-1.31482 -42.134559,-1.31482 l 10.820124,-3.57052 c 0,0 -11.531818,-6.30873 -20.361625,-10.09638 -4.016829,-1.71288 19.288056,-4.88533 19.288056,-4.88533 l -0.337749,-8.04574 c 0,0 7.285783,3.95653 15.886403,5.48847 8.62474,1.53195 16.18797,6.44141 21.90563,1.6767 5.72972,-4.74059 9.97574,-11.09757 4.28221,-16.54985 -5.69353,-5.45228 -12.03845,-9.6983 -22.52082,-10.67537 -10.482377,-0.97707 -47.405903,1.7732 -47.405903,1.7732 L 35.553259,910.61027 c 0,0 3.377518,1.03738 9.662117,-1.83351 6.2846,-2.87089 11.748943,-8.57649 11.748943,-8.57649 0,0 1.592263,-1.48369 -3.148331,-7.21342 -4.776774,-5.72971 -20.723499,-18.34716 -20.723499,-18.34716 l 8.323175,0.59106 c 0,0 -2.991511,-3.18452 -6.52585,-8.26286 -3.510205,-5.06628 -4.342524,-7.88892 -4.342524,-7.88892 l 11.218193,6.88773 c 0,0 6.634412,5.17484 4.957711,-0.44632 l -1.66463,-5.63322 c 0,0 11.037248,2.85883 21.423123,6.92391 10.361749,4.07715 22.955073,15.64516 28.696859,10.89251 5.729714,-4.75266 13.449764,-13.14821 2.074762,-24.05277 -11.387066,-10.91663 -18.117985,-13.00345 -26.332597,-16.68253 -8.238729,-3.69115 -9.444993,-4.34253 -17.394223,-7.10486 -7.949237,-2.75027 -9.505305,-11.45944 -9.505305,-11.45944 0,0 12.038442,9.6983 14.402712,3.89621 2.352199,-5.8021 0.977069,-10.48237 -2.55727,-15.54865 -3.53433,-5.07835 -6.139849,-10.42207 -6.139849,-10.42207 0,0 0.265382,0.94088 6.996293,3.02771 6.755037,2.08682 6.272537,7.32198 6.755037,2.08682 0.494569,-5.24721 -2.11095,-10.59093 -2.11095,-10.59093 0,0 4.463157,4.78883 11.097568,9.97574 6.634412,5.17484 12.484762,14.64396 16.622224,11.38707 4.13746,-3.2569 10.301435,-3.03977 5.102467,-13.73927 -5.211029,-10.6995 -7.478791,-25.30727 -7.478791,-25.30727 l 6.34491,4.23396 -2.279833,-14.61984 c 0,0 3.100081,0.10857 7.563238,4.89741 l 4.487271,4.8009 2.6417,-4.86121 c 0,0 7.45468,7.98541 8.84187,12.67776 1.3872,4.68027 9.77068,12.40032 9.98781,6.22429 0.21713,-6.1881 -1.82144,-9.65006 -1.82144,-9.65006 l 5.40403,4.5114 c 0,0 4.0289,-0.16887 2.75026,-7.94924 -1.27863,-7.78035 -1.07357,-13.95639 -1.07357,-13.95639 l 12.38826,17.75611 0.86851,-7.39436 c 0,0 5.69353,5.45228 2.82264,16.48954 -2.82264,11.02518 -3.92034,24.60764 -6.39316,33.48569 -2.46077,8.90218 0.91676,27.26141 8.25079,21.013 7.33405,-6.23635 10.34969,-13.25677 14.70428,-22.6897 4.34253,-9.44499 15.41596,-16.7911 15.41596,-16.7911 0,0 -5.3799,12.79839 -2.47282,8.87805 2.91914,-3.92033 4.4149,-2.31601 9.21581,-6.79122 4.80089,-4.47521 21.49549,-13.48596 21.49549,-13.48596 0,0 -5.72971,4.7406 -8.38348,9.60181 -2.62964,4.86122 -1.45957,15.72959 2.13507,10.59094 3.57053,-5.13866 8.26286,-6.52585 8.26286,-6.52585 0,0 -3.79971,11.32675 -8.97455,17.9491 -5.17484,6.62236 -16.52572,13.03964 -10.83219,18.49193 5.69354,5.46434 9.32437,7.4426 14.02878,6.05541 4.68027,-1.3872 9.65005,-1.83351 9.65005,-1.83351 l -3.87209,4.19777 10.57888,-2.11095 -15.31946,13.70308 8.50411,4.61996 c 0,0 -13.30502,-0.14475 -20.80794,2.07476 -7.50292,2.20745 -13.61864,9.11931 -22.15894,14.70428 -8.55236,5.58497 -19.9153,39.52905 -4.42697,29.85487 15.48834,-9.67419 31.85726,-30.69925 31.85726,-30.69925 0,0 -2.89502,11.09756 2.72613,9.43293 5.62117,-1.65257 18.45574,-9.71037 18.45574,-9.71037 0,0 -2.27983,7.98542 -9.32437,17.11679 -4.46315,5.8021 -10.04812,16.75491 -6.83947,13.77546 3.19658,-2.99152 17.10472,-3.63084 17.10472,-3.63084 0,0 -7.33404,6.24841 -15.8864,11.83339 -8.5403,5.58497 -22.81033,15.91053 -25.45203,20.77174 -2.65377,4.86122 5.53672,18.7573 16.06734,9.52943 10.51857,-9.22786 19.45693,-16.95997 21.15775,-21.54375 1.71289,-4.58378 9.03487,-10.83218 9.03487,-10.83218 l 0.89263,9.92749 14.61983,-2.27983 -8.68505,18.87793 c 0,0 -0.41012,3.28101 5.77798,2.37632 6.83947,-1.01326 7.12897,-0.0723 7.12897,-0.0723 0,0 -10.25318,10.16875 -20.85618,12.2797 -10.59094,2.11095 -61.71211,13.24469 -59.31166,37.30955 0.4825,4.94562 13.40152,36.21182 39.22748,41.98982 l 4.63203,0.5186 z"
       inkscape:connector-curvature="0" />
  </g>
</svg>
